<svg xmlns="http://www.w3.org/2000/svg" data-name="Ebene 1" viewBox="0 0 473.109 319.403"><defs><clipPath id="a"><path fill="none" d="M182.157 39.492v82.027H290.94V39.492H182.157Zm39.749 6.958c-.778 2.576-1.173 5.28-1.363 7.706-1.061-.39-2.101-.732-3.087-.979a26.23 26.23 0 0 0-6.38-.768c-.108 0-.217.007-.325.008.267-2.794.766-5.854 1.665-8.833a36.156 36.156 0 0 1 1.068-3.007c2.341.144 4.646.486 6.869 1.043.991.249 2.021.57 3.088.932a26.468 26.468 0 0 0-1.534 3.898Zm34.395 73.632c-.033.055-.068.105-.101.159-3.713-.395-7.08-1.242-10.226-2.555a36.728 36.728 0 0 0 1.849-2.742c1.161-1.915 2.771-4.58 3.894-7.815 3.483 1.214 6.929 1.452 9.94 1.472-1.458 5.039-3.825 8.956-5.356 11.481Z"/></clipPath><clipPath id="b"><path fill="none" d="M182.335 39.364v82.284h108.473V39.364H182.335Zm18.23 50.139c-1.875-1.463-3.779-3.144-5.499-5.033a36.29 36.29 0 0 1-3.061-3.888c2.011-3.127 4.23-5.74 6.728-7.942 1.047 1.893 2.264 3.619 3.664 5.156 1.287 1.414 2.737 2.699 4.184 3.833-2.715 2.414-4.571 5.254-6.016 7.874Zm13.997-11.931-.675.138c-.27-2.09-.766-3.763-1.311-5.591-.505-1.692-1.056-3.555-1.481-5.995.381-.083.757-.159 1.128-.234 2.283-.457 4.643-.929 8.261-3.032.048-.028.089-.055.135-.083.331 2.717.855 4.493 1.456 6.511.485 1.626 1 3.366 1.379 5.451-3.817 1.81-6.719 2.399-8.894 2.834Zm48.136 19.18c-3.766 1.779-6.48 2.484-8.876 3.106-.273.071-.535.144-.802.215.005-.282.013-.562.007-.849-.052-2.245-.417-3.257-1.081-5.095-.535-1.483-1.182-3.278-1.659-5.657.176-.047.361-.098.534-.143 2.169-.563 4.035-1.048 6.789-2.35.008-.004.838-.405 2.127-1.141.313 2.529.929 4.249 1.533 5.921.608 1.684 1.227 3.425 1.512 5.951l-.084.04Zm16.115-11.821c-1.408 1.562-3.075 3.116-4.939 4.634-1.497-2.768-3.72-6.472-7.312-9.401 1.293-1.066 2.44-2.142 3.401-3.209 1.141-1.266 2.174-2.711 3.094-4.29 3.675 3.046 6.208 6.534 8.004 9.497-.723.982-1.465 1.9-2.248 2.769Z"/></clipPath></defs><path d="M236.555 0c-42.708 0-77.33 34.622-77.33 77.33s34.622 77.33 77.33 77.33 77.33-34.622 77.33-77.33S279.263 0 236.555 0Zm0 140.418c-34.843 0-63.088-28.246-63.088-63.088s28.246-63.088 63.088-63.088 63.088 28.246 63.088 63.088-28.246 63.088-63.088 63.088Z"/><g stroke="#fff" stroke-miterlimit="10" stroke-width=".5"><path d="M237.601 51.314c7.156 5.345 7.388 8.564 14.321 12.549 7.421 4.265 9.68 2.029 16.508 5.901 8.435 4.783 12.496 12.455 14.595 16.42 5.613 10.603 5.699 20.692 5.389 25.615l.047.028-.051.032-.004.06-.047-.028c-4.191 2.603-13.119 7.301-25.116 7.374-4.486.027-13.166.08-21.371-5.087-6.641-4.182-5.741-7.231-13.01-11.75-6.792-4.222-9.738-2.903-17.832-6.678-.524-.244-9.433-4.481-15.778-11.449-10.968-12.046-10.881-28.533-10.563-34.402l-.048-.029.052-.032.003-.06.048.029c5.02-3.058 19.503-10.936 35.305-6.975 9.141 2.292 17.089 8.135 17.553 8.481Zm37.103 39.274c-1.823-3.444-4.874-9.208-10.918-12.635-1.989-1.128-3.061-1.337-5.006-1.716-2.695-.525-6.387-1.245-11.549-4.212-5.053-2.905-7.594-5.676-9.836-8.121-1.551-1.692-2.891-3.153-5.425-5.046-.068-.05-6.841-5.047-14.211-6.894-5.127-1.285-10.751-1.035-16.716.745a47.243 47.243 0 0 0-6.984 2.732c.11 2.569.412 5.085.898 7.445 1.255 6.097 3.696 11.17 7.254 15.078 5.115 5.618 12.722 9.221 12.796 9.255 2.869 1.338 4.79 1.827 7.015 2.393 3.215.818 6.859 1.745 11.809 4.822 5.057 3.144 7.438 6.055 9.176 8.181 1.254 1.534 1.945 2.379 3.881 3.598 5.88 3.703 12.401 3.663 16.298 3.639 6.321-.039 11.704-1.686 15.842-3.603-.269-4.553-1.366-10.075-4.323-15.661Z"/><path d="M252.881 42.75c15.782-4.04 30.304 3.765 35.339 6.798l.048-.029.004.06.052.031-.048.029c.348 5.868.517 22.354-10.391 34.455-6.31 7-15.197 11.281-15.72 11.528-8.076 3.815-11.028 2.511-17.799 6.767-7.247 4.555-6.331 7.599-12.951 11.815-8.18 5.208-16.86 5.199-21.346 5.194-11.997-.013-20.949-4.667-25.152-7.248l-.047.029-.004-.06a.877.877 0 0 1-.051-.032l.047-.029c-.334-4.922-.299-15.011 5.261-25.642 2.079-3.975 6.101-11.667 14.512-16.493 6.808-3.906 9.079-1.681 16.478-5.983 6.914-4.02 7.129-7.24 14.258-12.621.462-.348 8.38-6.232 17.51-8.569Zm-58.661 63.71c4.148 1.896 9.539 3.517 15.86 3.524 3.896.004 10.418.012 16.279-3.721 1.929-1.228 2.616-2.077 3.863-3.617 1.728-2.135 4.094-5.058 9.135-8.227 4.935-3.102 8.574-4.047 11.784-4.881 2.222-.577 4.141-1.076 7.003-2.428.074-.035 7.662-3.676 12.749-9.319 3.539-3.926 5.954-9.011 7.179-15.114a47.24 47.24 0 0 0 .861-7.45 47.159 47.159 0 0 0-6.997-2.697c-5.974-1.75-11.599-1.972-16.719-.661-7.36 1.884-14.109 6.914-14.176 6.965-2.524 1.905-3.857 3.373-5.4 5.073-2.23 2.456-4.757 5.24-9.795 8.17-5.147 2.993-8.835 3.731-11.528 4.27-1.943.389-3.014.603-4.997 1.741-6.027 3.458-9.049 9.237-10.855 12.69-2.929 5.601-3.998 11.128-4.244 15.682Z"/></g><path stroke="#fff" stroke-miterlimit="10" stroke-width=".5" d="M262.701 63.073c-.914 8.885-3.558 10.736-3.421 18.732.148 8.558 3.226 9.35 3.407 17.196.224 9.694-4.277 17.117-6.602 20.953-6.22 10.259-14.834 15.51-19.219 17.771v.055l-.054-.028-.054.028v-.055c-4.385-2.261-12.999-7.513-19.219-17.771-2.326-3.836-6.826-11.259-6.602-20.953.181-7.846 3.26-8.638 3.407-17.196.138-7.996-2.506-9.847-3.421-18.732-.059-.575-.995-10.396 1.729-19.417 4.71-15.595 18.904-23.982 24.105-26.721v-.056l.054.028.054-.028v.056c5.201 2.739 19.395 11.126 24.105 26.721 2.725 9.021 1.788 18.842 1.729 19.417Zm-14.665 52.001c2.02-3.332 5.401-8.908 5.241-15.855-.053-2.286-.423-3.313-1.096-5.177-.932-2.583-2.21-6.121-2.312-12.074-.1-5.828.974-9.431 1.922-12.609.656-2.2 1.223-4.1 1.546-7.246.008-.084.82-8.461-1.376-15.735-1.528-5.06-4.629-9.758-9.218-13.964a47.192 47.192 0 0 0-5.929-4.592 47.192 47.192 0 0 0-5.929 4.592c-4.588 4.206-7.69 8.904-9.218 13.964-2.197 7.273-1.385 15.651-1.377 15.732.324 3.149.891 5.049 1.547 7.249.948 3.179 2.022 6.782 1.922 12.609-.103 5.954-1.38 9.491-2.312 12.074-.673 1.864-1.044 2.891-1.096 5.177-.16 6.947 3.221 12.523 5.241 15.855 3.277 5.405 7.454 9.18 11.223 11.747 3.769-2.568 7.946-6.343 11.223-11.747Z"/><g clip-path="url(#a)"><path stroke="#fff" stroke-miterlimit="10" stroke-width=".5" d="M237.601 51.314c7.156 5.345 7.388 8.564 14.321 12.549 7.421 4.265 9.68 2.029 16.508 5.901 8.435 4.783 12.496 12.455 14.595 16.42 5.613 10.603 5.699 20.692 5.389 25.615l.047.028-.051.032-.004.06-.047-.028c-4.191 2.603-13.119 7.301-25.116 7.374-4.486.027-13.166.08-21.371-5.087-6.641-4.182-5.741-7.231-13.01-11.75-6.792-4.222-9.738-2.903-17.832-6.678-.524-.244-9.433-4.481-15.778-11.449-10.968-12.046-10.881-28.533-10.563-34.402l-.048-.029.052-.032.003-.06.048.029c5.02-3.058 19.503-10.936 35.305-6.975 9.141 2.292 17.089 8.135 17.553 8.481Zm37.103 39.274c-1.823-3.444-4.874-9.208-10.918-12.635-1.989-1.128-3.061-1.337-5.006-1.716-2.695-.525-6.387-1.245-11.549-4.212-5.053-2.905-7.594-5.676-9.836-8.121-1.551-1.692-2.891-3.153-5.425-5.046-.068-.05-6.841-5.047-14.211-6.894-5.127-1.285-10.751-1.035-16.716.745a47.243 47.243 0 0 0-6.984 2.732c.11 2.569.412 5.085.898 7.445 1.255 6.097 3.696 11.17 7.254 15.078 5.115 5.618 12.722 9.221 12.796 9.255 2.869 1.338 4.79 1.827 7.015 2.393 3.215.818 6.859 1.745 11.809 4.822 5.057 3.144 7.438 6.055 9.176 8.181 1.254 1.534 1.945 2.379 3.881 3.598 5.88 3.703 12.401 3.663 16.298 3.639 6.321-.039 11.704-1.686 15.842-3.603-.269-4.553-1.366-10.075-4.323-15.661Z"/></g><g clip-path="url(#b)"><path stroke="#fff" stroke-miterlimit="10" stroke-width=".5" d="M252.881 42.75c15.782-4.04 30.304 3.765 35.339 6.798l.048-.029.004.06.052.031-.048.029c.348 5.868.517 22.354-10.391 34.455-6.31 7-15.197 11.281-15.72 11.528-8.076 3.815-11.028 2.511-17.799 6.767-7.247 4.555-6.331 7.599-12.951 11.815-8.18 5.208-16.86 5.199-21.346 5.194-11.997-.013-20.949-4.667-25.152-7.248l-.047.029-.004-.06a.877.877 0 0 1-.051-.032l.047-.029c-.334-4.922-.299-15.011 5.261-25.642 2.079-3.975 6.101-11.667 14.512-16.493 6.808-3.906 9.079-1.681 16.478-5.983 6.914-4.02 7.129-7.24 14.258-12.621.462-.348 8.38-6.232 17.51-8.569Zm-58.661 63.71c4.148 1.896 9.539 3.517 15.86 3.524 3.896.004 10.418.012 16.279-3.721 1.929-1.228 2.616-2.077 3.863-3.617 1.728-2.135 4.094-5.058 9.135-8.227 4.935-3.102 8.574-4.047 11.784-4.881 2.222-.577 4.141-1.076 7.003-2.428.074-.035 7.662-3.676 12.749-9.319 3.539-3.926 5.954-9.011 7.179-15.114a47.24 47.24 0 0 0 .861-7.45 47.159 47.159 0 0 0-6.997-2.697c-5.974-1.75-11.599-1.972-16.719-.661-7.36 1.884-14.109 6.914-14.176 6.965-2.524 1.905-3.857 3.373-5.4 5.073-2.23 2.456-4.757 5.24-9.795 8.17-5.147 2.993-8.835 3.731-11.528 4.27-1.943.389-3.014.603-4.997 1.741-6.027 3.458-9.049 9.237-10.855 12.69-2.929 5.601-3.998 11.128-4.244 15.682Z"/></g><g stroke="#fff" stroke-miterlimit="10" stroke-width=".5"><path d="M237.745 85.411a4.091 4.091 0 0 1-1.096-2.15c-.007-.038-.062-.038-.069 0a4.091 4.091 0 0 1-1.096 2.15 4.09 4.09 0 0 1-2.199 1.155c-.036.006-.039.057-.004.068a4.839 4.839 0 0 1 2.104 1.27 4.838 4.838 0 0 1 1.196 2.124.035.035 0 0 0 .067 0 4.833 4.833 0 0 1 1.196-2.124 4.833 4.833 0 0 1 2.104-1.27c.035-.01.032-.061-.004-.068a4.083 4.083 0 0 1-2.199-1.155ZM228.847 78.59a4.091 4.091 0 0 0 1.096-2.15c.007-.038.062-.038.069 0a4.091 4.091 0 0 0 1.096 2.15 4.09 4.09 0 0 0 2.199 1.155c.036.006.039.057.004.068a4.839 4.839 0 0 0-2.104 1.27 4.838 4.838 0 0 0-1.196 2.124.035.035 0 0 1-.067 0 4.833 4.833 0 0 0-1.196-2.124 4.833 4.833 0 0 0-2.104-1.27c-.035-.01-.032-.061.004-.068a4.083 4.083 0 0 0 2.199-1.155ZM235.486 71.769a4.091 4.091 0 0 0 1.096-2.15c.007-.038.062-.038.069 0a4.091 4.091 0 0 0 1.096 2.15 4.09 4.09 0 0 0 2.199 1.155c.036.006.039.057.004.068a4.839 4.839 0 0 0-2.104 1.27 4.838 4.838 0 0 0-1.196 2.124.035.035 0 0 1-.067 0 4.833 4.833 0 0 0-1.196-2.124 4.833 4.833 0 0 0-2.104-1.27c-.035-.01-.032-.061.004-.068a4.083 4.083 0 0 0 2.199-1.155ZM242.202 78.59a4.091 4.091 0 0 0 1.096-2.15c.007-.038.062-.038.069 0a4.091 4.091 0 0 0 1.096 2.15 4.09 4.09 0 0 0 2.199 1.155c.036.006.039.057.004.068a4.839 4.839 0 0 0-2.104 1.27 4.838 4.838 0 0 0-1.196 2.124.035.035 0 0 1-.067 0 4.833 4.833 0 0 0-1.196-2.124 4.833 4.833 0 0 0-2.104-1.27c-.035-.01-.032-.061.004-.068a4.083 4.083 0 0 0 2.199-1.155Z"/></g><path d="M4.984 292.237v-61.893h38.839v8.018H14.331v18.65h27.416v7.976H14.331v19.232h29.783v8.017H4.984ZM73.076 230.345v61.893H63.73v-61.893h9.346Zm10.717 61.892H68.507v-8.183h14.746c4.708 0 8.625-.879 11.755-2.638 3.129-1.759 5.469-4.348 7.02-7.769 1.55-3.419 2.326-7.566 2.326-12.44 0-4.846-.769-8.958-2.306-12.337-1.537-3.378-3.829-5.946-6.875-7.705-3.046-1.759-6.827-2.638-11.34-2.638h-15.66v-8.184h16.242c6.064 0 11.271 1.232 15.618 3.697s7.685 6.002 10.011 10.613c2.326 4.61 3.489 10.129 3.489 16.553s-1.17 11.991-3.51 16.615c-2.34 4.625-5.726 8.184-10.156 10.676-4.431 2.492-9.79 3.738-16.075 3.738ZM132.569 292.237v-61.893h9.346v53.876h28.039v8.017h-37.385ZM188.033 292.237v-61.893h38.839v8.018h-29.493v18.65h27.416v7.976h-27.416v19.232h29.783v8.017h-39.129ZM259.073 292.237l-17.114-61.893h9.803l12.047 47.936h.581l12.545-47.936h9.72l12.503 47.978h.623l12.005-47.978h9.887l-17.239 61.893h-9.388l-13.001-46.315h-.499l-13.001 46.315h-9.471ZM347.187 230.345v61.893h-9.347v-61.893h9.347ZM388.942 293.234c-4.625 0-8.633-.728-12.025-2.181-3.393-1.454-6.043-3.537-7.954-6.252-1.911-2.714-2.978-5.939-3.198-9.679h9.388c.193 2.243.92 4.106 2.181 5.587 1.26 1.482 2.9 2.583 4.922 3.303 2.021.721 4.237 1.08 6.646 1.08 2.631 0 4.984-.415 7.062-1.246s3.703-2 4.881-3.51c1.177-1.51 1.766-3.274 1.766-5.297 0-1.827-.52-3.322-1.559-4.485-1.038-1.163-2.443-2.125-4.216-2.888-1.772-.761-3.767-1.433-5.981-2.015l-7.27-1.993c-4.984-1.329-8.917-3.316-11.797-5.961s-4.319-6.113-4.319-10.405c0-3.572.962-6.688 2.887-9.347 1.924-2.658 4.541-4.729 7.851-6.21 3.309-1.48 7.026-2.222 11.153-2.222 4.209 0 7.913.741 11.111 2.222 3.198 1.481 5.732 3.504 7.602 6.064 1.869 2.562 2.846 5.49 2.929 8.786h-9.056c-.332-2.853-1.655-5.068-3.967-6.646-2.312-1.578-5.255-2.368-8.827-2.368-2.492 0-4.673.395-6.542 1.185-1.869.789-3.31 1.876-4.32 3.261s-1.516 2.977-1.516 4.776c0 1.938.602 3.518 1.807 4.735 1.204 1.219 2.672 2.181 4.403 2.888a44.914 44.914 0 0 0 5.005 1.724l6.023 1.62a48.4 48.4 0 0 1 6.064 1.993 25.137 25.137 0 0 1 5.795 3.261c1.786 1.344 3.226 3.006 4.319 4.985s1.641 4.368 1.641 7.165c0 3.462-.899 6.557-2.699 9.284-1.801 2.728-4.403 4.874-7.81 6.438-3.406 1.563-7.533 2.347-12.379 2.347ZM430.407 292.237v-61.893h38.839v8.018h-29.492v18.65h27.415v7.976h-27.415v19.232h29.783v8.017h-39.13Z"/></svg>